<?xml version="1.0" encoding="UTF-8"?>
<svg version="1.1" xmlns="http://www.w3.org/2000/svg" width="225" height="225">
<path d="M0 0 C74.25 0 148.5 0 225 0 C225 74.25 225 148.5 225 225 C150.75 225 76.5 225 0 225 C0 150.75 0 76.5 0 0 Z " fill="#FE244A" transform="translate(0,0)"/>
<path d="M0 0 C0.55429688 0.42152344 1.10859375 0.84304687 1.6796875 1.27734375 C2.40414062 1.82519531 3.12859375 2.37304688 3.875 2.9375 C4.59429687 3.48277344 5.31359375 4.02804688 6.0546875 4.58984375 C10.66962048 7.93520682 15.47240004 7.43844986 21 7 C25.32481674 5.39821602 28.50362611 2.98220126 32 0 C32.48210937 0.42152344 32.96421875 0.84304687 33.4609375 1.27734375 C34.09257813 1.82519531 34.72421875 2.37304688 35.375 2.9375 C36.00148437 3.48277344 36.62796875 4.02804688 37.2734375 4.58984375 C41.98177795 8.43534353 48.2268113 7.50859043 54 7 C58.14183036 5.60558378 60.54873707 3.67689439 63 0 C63.66 0 64.32 0 65 0 C66.66666667 1.66666667 68.33333333 3.33333333 70 5 C74.6750872 7.91071527 79.67075349 7.6247563 85 7 C89.06628957 5.53642414 91.57221651 3.64167523 94 0 C94.66 0 95.32 0 96 0 C97.66666667 1.66666667 99.33333333 3.33333333 101 5 C104.64454711 7.51348077 108.69061338 7.56906134 113 8 C113.83788669 15.04051763 114.14774516 21.96776764 114.1328125 29.0546875 C114.13376923 30.0774881 114.13472595 31.1002887 114.13571167 32.15408325 C114.1363879 34.30373191 114.13457277 36.45338268 114.13037109 38.60302734 C114.12502611 41.85909711 114.13032949 45.11502827 114.13671875 48.37109375 C114.13605765 50.47395863 114.13477584 52.57682343 114.1328125 54.6796875 C114.13483673 55.63632294 114.13686096 56.59295837 114.13894653 57.57858276 C114.05332866 82.77950621 114.05332866 82.77950621 108.03637695 90.52905273 C103.91250062 93.88498683 100.49837635 94.23082932 95.30859375 94.7890625 C94.31363388 94.90617584 93.31867401 95.02328918 92.29356384 95.14395142 C79.08097237 96.52550601 65.79912417 96.45233771 52.53051758 96.39111328 C48.81188932 96.3740381 45.09390573 96.38419838 41.37529945 96.40140915 C27.57405738 96.45585913 13.8499491 96.32285957 0.12109375 94.7265625 C-0.85915268 94.61871429 -1.83939911 94.51086609 -2.84934998 94.39974976 C-6.70454565 93.87852781 -9.31268388 93.49211593 -12.50756836 91.20458984 C-18.94425065 81.69645291 -18.29427834 68.83706453 -18.23046875 57.84375 C-18.23001053 56.53845337 -18.22955231 55.23315674 -18.2290802 53.88830566 C-18.22753135 51.1520438 -18.21935956 48.41591575 -18.20581055 45.6796875 C-18.18868747 42.17837764 -18.18500098 38.67721203 -18.18575573 35.17586517 C-18.18541862 31.81514087 -18.17658884 28.45446369 -18.16796875 25.09375 C-18.16685593 23.83961304 -18.1657431 22.58547607 -18.16459656 21.29333496 C-18.15821671 20.13112427 -18.15183685 18.96891357 -18.14526367 17.77148438 C-18.14145187 16.75066772 -18.13764008 15.72985107 -18.13371277 14.67810059 C-18.01460768 12.29257373 -17.68264096 10.27947297 -17 8 C-16.03900391 7.88785156 -16.03900391 7.88785156 -15.05859375 7.7734375 C-8.43147127 6.76603587 -4.61329397 4.85770689 0 0 Z " fill="#FEFAFA" transform="translate(64,86)"/>
<path d="M0 0 C2.54487382 -0.00098447 5.08974806 -0.00493732 7.63461304 -0.01171875 C12.9558857 -0.01595225 18.27575078 0.01022095 23.59667969 0.06152344 C29.73100416 0.12023693 35.86333419 0.12188909 41.99782622 0.0929203 C47.92470983 0.0661972 53.85098787 0.07945282 59.77787399 0.1104126 C62.28880353 0.12009068 64.79979099 0.11998321 67.31071854 0.10980225 C70.82247191 0.10141463 74.33092607 0.13839142 77.84228516 0.1875 C78.87314743 0.17647247 79.9040097 0.16544495 80.96611023 0.15408325 C87.46269077 0.30655759 90.82972617 1.65629534 95.435812 6.28491211 C96.28356162 7.19575562 96.28356162 7.19575562 97.1484375 8.125 C98.37465281 9.29476828 99.60342358 10.46187007 100.8359375 11.625 C101.94603772 12.78602224 103.0505119 13.9524581 104.1484375 15.125 C104.65890625 15.6096875 105.169375 16.094375 105.6953125 16.59375 C110.17195717 21.52308907 109.8579652 27.18094206 109.63671875 33.578125 C108.80597427 39.61265293 106.4746796 42.06461414 101.9609375 46.0625 C97.67048954 47.6833359 93.67261806 47.78477633 89.1484375 47.125 C84.01534959 44.51179161 80.9686467 41.58562759 79.1484375 36.125 C78.2821875 37.48625 78.2821875 37.48625 77.3984375 38.875 C74.67677869 42.80628494 72.73996602 45.59449049 68.1484375 47.125 C63.2095739 47.64353818 59.29488916 47.67699525 54.7734375 45.5 C51.86813625 42.87139411 50.13223188 40.48219049 48.1484375 37.125 C47.375 38.48625 47.375 38.48625 46.5859375 39.875 C44.13236841 43.47016026 41.30095449 45.76627201 37.1484375 47.125 C31.86101049 47.87815094 27.6026283 47.78599582 22.7109375 45.5625 C19.62229804 42.62452588 18.04935198 39.92682897 16.1484375 36.125 C15.85710937 36.66769531 15.56578125 37.21039063 15.265625 37.76953125 C12.5525781 42.50456593 10.59592468 45.48047557 5.1484375 47.125 C0.03197836 47.87044438 -4.33823944 47.91970209 -8.7890625 45.0625 C-12.20883883 42.25570244 -13.46959204 39.27091139 -14.8515625 35.125 C-15.05910156 35.65609375 -15.26664063 36.1871875 -15.48046875 36.734375 C-17.47414765 41.30565549 -19.2874653 44.30234384 -23.859375 46.5 C-27.57813222 47.66666893 -31.02237268 47.82945933 -34.8515625 47.125 C-38.2265625 45.3125 -38.2265625 45.3125 -40.8515625 43.125 C-41.4290625 42.650625 -42.0065625 42.17625 -42.6015625 41.6875 C-46.14205588 37.26188327 -46.64124337 31.92932453 -46.546875 26.44921875 C-45.32524665 20.60873714 -41.62017981 16.09392013 -37.50366211 11.87690735 C-35.76781925 10.11893879 -35.76781925 10.11893879 -34.26391602 7.87345886 C-25.61132445 -2.47140072 -12.33009579 -0.13356649 0 0 Z " fill="#FEFDFD" transform="translate(79.8515625,41.875)"/>
<path d="M0 0 C3.5614664 1.0494192 6.33636552 2.33636552 9 5 C13.02394716 5.4463544 17.05481913 5.41421961 21.1015625 5.42553711 C23.09666596 5.43733248 25.09142975 5.48695164 27.0859375 5.53710938 C34.03428724 5.57578946 38.80543977 5.38832655 44.42480469 1.13745117 C47.36266819 -0.98398498 50.15223042 -0.6141564 53.609375 -0.41796875 C60.16612829 0.72839171 64.20478924 4.66619028 68 10 C72.25668896 17.32998307 74.12370929 25.2258703 76.1875 33.375 C76.71860493 35.44118347 77.25223286 37.50668526 77.78791809 39.57168579 C78.26842758 41.42859896 78.74218484 43.28725552 79.21557617 45.14599609 C79.87815445 47.91812483 79.87815445 47.91812483 81 50 C81.203125 52.2421875 81.203125 52.2421875 81.25 54.875 C81.27578125 55.73867187 81.3015625 56.60234375 81.328125 57.4921875 C80.93322688 60.51033741 80.09329196 61.8186724 78 64 C71.8611364 66.04628787 64.49983235 66.10571965 58.5625 63.375 C53.3323535 60.29780362 49.70515114 55.89052213 48 50 C48 48.68 48 47.36 48 46 C46.26665405 46.24339111 46.26665405 46.24339111 44.49829102 46.49169922 C40.33797004 47.0096905 36.21693587 47.14527571 32.02734375 47.1328125 C31.30059952 47.13376923 30.57385529 47.13472595 29.8250885 47.13571167 C28.30160433 47.13638686 26.77811718 47.13457915 25.25463867 47.13037109 C22.93987502 47.12500551 20.62530467 47.13034268 18.31054688 47.13671875 C16.82031208 47.136058 15.3300774 47.13477691 13.83984375 47.1328125 C12.81611916 47.13584885 12.81611916 47.13584885 11.77171326 47.13894653 C7.40771067 47.11792426 3.2937628 46.7014063 -1 46 C-1.020625 47.155 -1.04125 48.31 -1.0625 49.5 C-1.7662852 55.08071928 -4.87785499 58.38481234 -9 62 C-14.88318806 65.76524036 -22.17408319 66.3562606 -29 65 C-31.67499639 62.87047596 -32.80437886 61.24954239 -33.33764648 57.84326172 C-33.5680308 51.15610641 -32.04277861 45.02168104 -30.25 38.625 C-29.97486572 37.61493896 -29.69973145 36.60487793 -29.41625977 35.56420898 C-28.62855651 32.70408773 -27.82008773 29.85098283 -27 27 C-26.80325684 26.30890137 -26.60651367 25.61780273 -26.40380859 24.90576172 C-22.67119968 12.0231502 -15.69920745 -2.85904266 0 0 Z " fill="#FE254B" transform="translate(88,102)"/>
<path d="M0 0 C5.98241113 3.21277635 10.88340711 8.62433417 14.8984375 14.01953125 C14.8984375 14.67953125 14.8984375 15.33953125 14.8984375 16.01953125 C12.2584375 16.01953125 9.6184375 16.01953125 6.8984375 16.01953125 C6.8984375 18.65953125 6.8984375 21.29953125 6.8984375 24.01953125 C2.2784375 24.01953125 -2.3415625 24.01953125 -7.1015625 24.01953125 C-7.1015625 21.37953125 -7.1015625 18.73953125 -7.1015625 16.01953125 C-10.0715625 16.01953125 -13.0415625 16.01953125 -16.1015625 16.01953125 C-13.82681073 11.83766435 -10.98972551 8.51026249 -7.6640625 5.14453125 C-7.18646484 4.6340625 -6.70886719 4.12359375 -6.21679688 3.59765625 C-2.69731465 0.02506798 -2.69731465 0.02506798 0 0 Z " fill="#FEF9FA" transform="translate(112.1015625,117.98046875)"/>
<path d="M0 0 C0.33 0 0.66 0 1 0 C1.66 2.31 2.32 4.62 3 7 C-7.14108911 17.43935644 -7.14108911 17.43935644 -12 18 C-12.2475 17.360625 -12.495 16.72125 -12.75 16.0625 C-13.80283433 13.80696091 -13.80283433 13.80696091 -16.078125 13.37109375 C-16.71234375 13.24863281 -17.3465625 13.12617187 -18 13 C-17.33613281 12.91363281 -16.67226563 12.82726562 -15.98828125 12.73828125 C-10.14622159 11.80866884 -6.70392498 10.93856664 -3 6 C-1.20679176 2.83354526 -1.20679176 2.83354526 0 0 Z " fill="#FE3055" transform="translate(65,76)"/>
<path d="M0 0 C0.33 0 0.66 0 1 0 C1.66 2.31 2.32 4.62 3 7 C1.35 8.32 -0.3 9.64 -2 11 C-3.25 9.4375 -3.25 9.4375 -4 7 C-2.93237266 4.42998985 -1.53455057 2.3469597 0 0 Z " fill="#FE3B5D" transform="translate(65,76)"/>
<path d="M0 0 C0.66 1.32 1.32 2.64 2 4 C0.35 5.32 -1.3 6.64 -3 8 C-3.66 7.34 -4.32 6.68 -5 6 C-3.63016497 2.83884224 -3.0109362 2.0072908 0 0 Z " fill="#FE244B" transform="translate(61,84)"/>
</svg>
